# xmcd
#
# Track frame offsets:
#	150
#	16535
#	37917
#	62722
#	83347
#	90975
#	113095
#	137030
#	154562
#	166277
#	178502
#	211817
#	237655
#	247167
#	282575
#	307485
#
# Disc length: 4329 seconds
#
# Revision: 1
# Processed by: cddbd v1.5.1PL0 Copyright (c) Steve Scherf et al.
# Submitted via: CDex 1.50Beta5
#
DISCID=ce10e710
DTITLE=Bizet - CARMEN
DYEAR=1900
DGENRE=Classical
TTITLE0=前奏曲
TTITLE1=第1幕 上番衛兵と一緒に
TTITLE2=トロヤノス/ハバネラ
TTITLE3=トロヤノス、ドミンゴ/セビーリャの砦の近く
TTITLE4=アルカラの竜騎兵
TTITLE5=トロヤノス/第2幕 ジプシーの歌
TTITLE6=ホセ・ファン・ダム/闘牛士の歌
TTITLE7=ドミンゴ/お前が、俺に投げた花
TTITLE8=密輸入者の行進
TTITLE9=第3幕 聞きな、聞きな、仲間よ聞きな
TTITLE10=バローズ、バルビエ、トロヤノス/あたいのを試してみようか
TTITLE11=キリ・テ・カナワ/何も怖がるものは無い
TTITLE12=アラゴネーズ
TTITLE13=第4幕 来たぞ、来たぞ
TTITLE14=トロヤノス、ドミンゴ/あんた、おれだ
TTITLE15=トロヤノス、ドミンゴ/万歳!万歳!すばらしい手練だぞ!
EXTD=
EXTT0=
EXTT1=
EXTT2=
EXTT3=
EXTT4=
EXTT5=
EXTT6=
EXTT7=
EXTT8=
EXTT9=
EXTT10=
EXTT11=
EXTT12=
EXTT13=
EXTT14=
EXTT15=
PLAYORDER=
